<?xml version="1.0" standalone="no"?>
<!DOCTYPE svg PUBLIC "-//W3C//DTD SVG 20010904//EN"
 "http://www.w3.org/TR/2001/REC-SVG-20010904/DTD/svg10.dtd">
<svg version="1.0" xmlns="http://www.w3.org/2000/svg"
 width="512.000000pt" height="512.000000pt" viewBox="0 0 512.000000 512.000000"
 preserveAspectRatio="xMidYMid meet">
<metadata>
Created by potrace 1.14, written by Peter Selinger 2001-2017
</metadata>
<g transform="translate(0.000000,512.000000) scale(0.100000,-0.100000)"
fill="#000000" stroke="none">
<path d="M2380 5114 c-466 -44 -864 -179 -1219 -414 -156 -103 -255 -183 -385
-309 -217 -212 -377 -432 -512 -706 -122 -249 -195 -485 -241 -782 -23 -150
-23 -536 0 -686 46 -297 119 -533 241 -782 143 -289 285 -484 517 -710 215
-209 400 -339 674 -471 358 -173 694 -249 1105 -249 411 0 747 76 1105 249
274 132 459 262 674 471 233 227 375 422 516 710 91 185 140 316 185 494 121
488 103 970 -56 1451 -56 170 -188 439 -289 590 -419 623 -1051 1019 -1795
1125 -111 16 -429 27 -520 19z m1124 -687 c-141 -236 -202 -328 -307 -458
-185 -233 -347 -450 -353 -476 -10 -37 4 -71 31 -80 l25 -8 -60 -107 c-59
-105 -73 -145 -47 -135 7 3 41 13 75 22 35 10 60 20 58 23 -3 3 -33 -3 -67
-12 -33 -10 -63 -16 -65 -13 -4 3 63 121 149 262 16 28 66 111 110 185 43 74
108 182 142 240 35 58 68 116 74 130 6 14 25 48 43 76 81 125 110 164 118 159
5 -3 10 2 12 10 2 12 9 10 32 -10 35 -30 42 -31 42 -5 0 11 -4 20 -9 20 -5 0
-5 6 1 13 6 7 9 24 6 38 -5 22 -5 23 9 6 10 -12 17 -14 22 -8 11 18 27 12 20
-8 -4 -15 -1 -18 19 -14 21 4 26 0 32 -22 4 -15 17 -30 30 -35 13 -5 24 -17
24 -25 0 -9 6 -15 13 -14 6 1 20 -1 30 -6 12 -5 22 -2 32 11 24 32 16 6 -10
-35 -19 -28 -23 -43 -17 -61 8 -20 11 -18 38 34 31 59 38 66 48 40 3 -8 10
-13 15 -9 6 3 24 -8 41 -25 32 -31 60 -39 60 -17 0 6 5 4 11 -6 8 -14 7 -23
-5 -36 -20 -22 -20 -31 -1 -31 8 0 15 -5 15 -10 0 -6 -3 -9 -7 -9 -21 3 -22
-3 -8 -32 11 -19 22 -29 31 -25 8 3 14 -1 14 -10 0 -9 -5 -12 -11 -8 -6 3 -15
0 -20 -7 -6 -10 -10 -9 -15 6 -9 25 -23 35 -41 28 -17 -7 -17 -23 1 -23 8 0
18 -17 24 -37 5 -21 10 -30 11 -20 1 20 12 22 29 5 7 -7 12 -8 12 -2 0 6 7 11
15 11 9 0 14 -6 11 -14 -4 -9 -1 -11 5 -7 8 4 9 -1 4 -15 -4 -12 -2 -21 4 -21
6 0 11 7 11 16 0 8 5 12 11 9 7 -5 3 -15 -10 -29 -22 -24 -27 -51 -11 -61 6
-3 10 -1 10 4 0 6 5 11 11 11 6 0 8 -9 4 -20 -4 -14 -2 -20 8 -20 19 0 32 18
42 55 5 18 9 24 12 15 3 -8 6 -21 8 -27 3 -8 19 1 42 22 34 32 74 52 45 23
-18 -18 -14 -30 8 -23 15 5 26 -4 50 -36 21 -29 27 -45 19 -50 -6 -4 -13 -17
-14 -30 -2 -13 -6 -36 -10 -51 -6 -22 -4 -28 9 -28 9 0 16 5 16 10 0 6 10 10
23 10 17 0 19 -2 7 -10 -8 -5 -11 -12 -7 -17 4 -4 17 -1 29 6 31 19 45 -2 14
-23 -15 -9 -26 -22 -26 -28 0 -6 9 -3 20 7 19 17 20 17 20 1 0 -10 -9 -20 -20
-23 -15 -4 -19 -12 -16 -34 4 -42 14 -46 23 -9 5 20 18 36 31 41 20 8 25 2 51
-51 l29 -59 -24 -22 c-16 -15 -22 -29 -18 -41 3 -11 0 -25 -6 -33 -20 -24 -3
-35 33 -23 17 6 37 15 43 19 13 10 24 2 24 -18 0 -7 -6 -13 -14 -13 -18 0 -76
-32 -76 -43 0 -4 9 -2 20 5 10 7 22 9 26 6 10 -11 -6 -28 -27 -28 -13 0 -19
-7 -19 -21 0 -18 2 -19 15 -9 21 18 29 6 13 -19 -10 -17 -10 -23 0 -33 11 -11
13 -10 10 2 -2 8 7 19 19 24 14 7 21 18 20 35 -2 20 3 26 18 26 11 0 20 -4 20
-10 1 -5 8 -24 18 -42 22 -42 13 -115 -19 -152 l-23 -26 -1 36 c0 47 -23 68
-49 45 -38 -35 -53 -139 -26 -190 8 -15 15 -34 15 -42 0 -21 22 -28 32 -11 5
9 18 22 29 27 17 9 24 6 47 -18 20 -21 36 -29 55 -27 19 2 27 -1 27 -12 0 -9
-6 -13 -14 -10 -16 6 -36 -11 -36 -32 -1 -9 -14 -31 -29 -49 -27 -31 -31 -33
-64 -24 -20 6 -38 7 -41 4 -12 -11 -5 -20 19 -26 21 -5 24 -11 19 -31 -5 -21
-3 -25 17 -24 13 0 18 3 12 6 -19 7 -16 27 7 41 19 12 20 10 17 -43 -2 -47 0
-54 15 -49 9 2 20 0 23 -7 6 -8 10 -8 16 2 5 8 0 18 -13 27 -12 9 -16 18 -10
24 12 12 82 0 82 -14 0 -6 -7 -8 -15 -4 -8 3 -15 1 -15 -4 0 -6 7 -10 15 -10
9 0 15 -9 15 -25 0 -14 -4 -25 -10 -25 -5 0 -10 -5 -10 -11 0 -5 5 -7 12 -3 8
5 9 -5 3 -37 -4 -24 -7 -54 -6 -66 1 -25 -27 -38 -60 -28 -13 4 -27 1 -39 -10
-17 -15 -24 -16 -50 -5 -24 10 -34 10 -43 1 -15 -15 6 -31 41 -31 13 0 32 -5
44 -11 11 -6 40 -11 65 -12 40 0 44 -2 39 -21 -3 -12 -6 -28 -6 -37 0 -12 -9
-16 -37 -15 -33 1 -38 -2 -41 -23 -4 -27 21 -53 43 -45 17 7 29 -13 19 -34 -4
-9 -6 -25 -5 -34 1 -10 -2 -18 -8 -18 -20 0 -41 13 -41 26 0 8 6 11 15 8 9 -4
15 0 15 10 0 9 -3 16 -7 16 -19 -1 -32 -18 -38 -53 -11 -58 -20 -57 -67 5 -25
32 -49 26 -64 -15 -22 -62 -10 -92 46 -116 27 -12 57 -21 67 -21 32 0 41 -17
29 -55 -10 -31 -13 -33 -41 -28 l-30 6 19 -21 c19 -22 19 -22 0 -22 -18 -1
-18 -1 0 -15 24 -18 13 -34 -20 -27 -28 5 -44 30 -26 41 12 7 11 28 -1 49 -11
17 -28 15 -21 -3 4 -9 0 -15 -8 -15 -19 0 -39 -45 -33 -73 14 -60 12 -224 -2
-264 -15 -41 -36 -52 -26 -14 3 11 -3 36 -13 57 -14 28 -15 39 -6 42 10 3 10
7 1 18 -9 11 -8 18 5 32 24 28 20 36 -28 54 l-43 16 -16 -34 c-10 -20 -12 -36
-7 -39 17 -10 11 -25 -9 -25 -20 0 -39 -32 -22 -38 6 -2 11 -10 11 -18 0 -8
-7 -11 -17 -8 -14 5 -15 4 -4 -4 8 -6 12 -19 8 -31 -3 -12 -1 -23 4 -26 12 -8
-12 -44 -26 -38 -8 3 -15 -16 -19 -57 -8 -66 -23 -83 -57 -61 -24 14 -25 -1
-3 -34 12 -19 13 -27 3 -43 -11 -17 -9 -25 15 -52 19 -23 24 -36 17 -43 -7 -7
-17 -5 -31 8 -19 18 -20 18 -20 -3 0 -12 5 -22 10 -22 6 0 10 -4 10 -9 0 -14
-48 0 -54 15 -3 8 -1 23 5 33 9 13 7 25 -6 50 -9 18 -12 30 -7 27 17 -10 24
12 12 34 -6 11 -20 20 -31 20 -15 0 -18 -5 -13 -24 5 -21 2 -23 -21 -21 -25 3
-26 3 -11 -20 20 -30 20 -36 2 -29 -19 7 -28 -22 -10 -37 8 -7 14 -8 12 -3 -2
5 2 11 7 13 6 3 11 -3 13 -12 4 -20 -27 -35 -37 -18 -5 7 -13 -12 -19 -44 -7
-32 -9 -62 -6 -67 11 -17 -6 -60 -21 -54 -10 4 -15 -1 -15 -14 0 -11 -5 -20
-10 -20 -6 0 -8 -10 -5 -23 5 -19 -1 -29 -29 -50 -42 -33 -46 -33 -46 -4 0 29
-15 51 -29 43 -6 -4 -11 -16 -11 -27 0 -25 -26 -25 -40 1 -6 11 -17 20 -24 20
-27 0 -35 -89 -11 -114 19 -18 19 -30 1 -23 -8 3 -16 -2 -19 -14 -6 -21 -34
-36 -45 -24 -4 4 -1 10 6 12 17 6 15 23 -2 23 -15 0 -32 -36 -27 -59 1 -7 -2
-10 -8 -6 -6 3 -11 0 -11 -7 -1 -7 -9 3 -20 22 -15 28 -19 31 -20 14 0 -20
-42 -49 -54 -37 -3 3 -3 23 0 44 5 26 1 46 -12 68 -21 36 -34 40 -34 11 0 -21
-15 -27 -25 -10 -4 6 -17 4 -36 -5 -16 -9 -27 -20 -24 -26 4 -5 11 -24 15 -42
l9 -32 -24 27 c-13 16 -26 28 -28 28 -2 0 -4 -44 -3 -98 l1 -97 -29 -3 c-16
-2 -33 1 -39 7 -6 6 -20 11 -30 11 -14 0 -18 5 -14 18 2 11 1 37 -3 58 l-8 39
-1 -47 c-1 -59 -9 -78 -31 -78 -13 0 -19 11 -24 42 -5 28 -10 38 -15 29 -6 -8
-10 -3 -14 19 -9 44 -42 38 -42 -8 0 -38 -20 -43 -29 -6 -5 20 -12 25 -34 22
l-27 -3 -1 -90 c0 -49 -1 -96 -2 -102 -3 -21 -28 -15 -40 9 -9 20 -11 20 -11
5 -1 -29 -26 -14 -29 17 -2 18 3 33 15 42 17 13 17 13 -4 14 -25 0 -38 16 -38
45 0 14 -8 21 -27 23 -24 3 -28 0 -28 -22 0 -19 -6 -26 -29 -31 -20 -4 -31
-13 -33 -28 -3 -20 -5 -19 -25 13 -13 19 -23 31 -23 26 0 -6 -7 -1 -15 10 -14
19 -15 19 -21 -3 -3 -13 -13 -23 -20 -23 -8 0 -14 -7 -14 -16 0 -8 4 -13 9
-10 5 3 11 -6 14 -19 2 -14 0 -28 -5 -31 -5 -3 -7 -12 -4 -20 4 -9 -2 -13 -17
-11 -16 1 -23 -5 -28 -28 -6 -28 -7 -28 -8 -5 0 15 -6 31 -12 37 -14 14 -20
73 -8 73 5 0 9 4 9 9 0 13 -34 24 -38 12 -8 -24 -18 -9 -14 19 3 18 0 30 -7
30 -6 0 -11 -5 -11 -11 0 -6 -7 -9 -15 -5 -10 4 -15 -1 -15 -14 0 -11 -4 -20
-10 -20 -5 0 -10 12 -10 28 -1 23 -2 24 -11 10 -5 -10 -16 -18 -24 -18 -15 0
-28 -30 -31 -75 -6 -81 -34 -134 -34 -65 0 19 -5 30 -14 30 -7 0 -16 9 -19 20
-7 28 -31 25 -45 -5 -6 -14 -16 -25 -22 -25 -5 0 -10 -7 -10 -15 0 -8 -4 -15
-10 -15 -5 0 -10 4 -10 9 0 5 -9 11 -21 14 -15 4 -19 11 -15 24 4 13 -2 27
-19 43 -14 13 -25 32 -25 42 0 10 -6 18 -13 18 -16 0 -50 -34 -42 -42 3 -3 -1
-11 -10 -18 -8 -7 -15 -18 -15 -25 0 -11 -39 -29 -47 -21 -2 1 1 24 6 49 9 50
6 61 -8 25 -5 -14 -6 8 -3 54 l5 78 -27 0 c-16 0 -26 -5 -26 -15 0 -8 -4 -15
-9 -15 -5 0 -7 10 -5 23 4 21 4 21 -6 -2 -6 -13 -8 -33 -5 -45 3 -12 2 -16 -1
-9 -3 7 -12 9 -21 6 -12 -5 -14 -1 -9 15 6 17 4 21 -8 16 -18 -7 -21 7 -6 22
12 12 3 44 -11 44 -15 0 -29 -38 -29 -80 0 -37 -3 -42 -35 -56 -19 -7 -37 -14
-40 -14 -3 0 -5 23 -5 50 0 36 4 52 15 56 19 8 20 24 0 24 -7 0 -18 8 -24 17
-13 24 -29 7 -33 -37 -2 -21 -8 -34 -15 -33 -19 4 -16 -24 3 -35 13 -7 14 -13
6 -28 -10 -18 -11 -18 -18 -1 -4 12 -13 16 -25 12 -41 -13 -84 46 -45 61 8 3
17 16 20 30 4 13 86 106 184 207 98 100 216 222 262 271 47 49 180 187 296
305 116 119 228 235 248 258 l38 43 32 -25 c69 -52 166 -85 417 -139 241 -52
319 -106 319 -221 0 -91 -53 -157 -152 -191 -73 -26 -252 -26 -323 0 -112 41
-188 128 -201 232 -4 27 -11 55 -17 61 -6 9 -39 13 -97 13 -116 0 -124 -8
-110 -111 37 -261 253 -422 570 -422 196 -1 335 44 443 143 66 60 102 125 118
212 23 127 -15 251 -102 333 -85 79 -175 115 -457 179 -146 34 -216 58 -255
87 -16 13 -7 25 107 144 69 72 125 134 126 138 0 7 -120 -1 -129 -9 -2 -2 20
-4 50 -4 l54 0 -80 -80 c-44 -44 -88 -80 -97 -80 -20 0 -193 -72 -286 -119
-47 -24 -86 -58 -178 -158 -66 -71 -148 -171 -184 -223 -35 -52 -156 -210
-269 -350 -113 -140 -247 -311 -299 -380 -95 -126 -254 -311 -332 -385 l-42
-40 34 55 c107 169 250 398 403 644 102 165 148 237 263 413 179 275 168 254
151 267 -8 6 -22 29 -30 51 -10 28 -26 46 -50 59 -35 19 -39 19 -105 3 -38 -9
-123 -44 -189 -76 -66 -33 -121 -59 -122 -57 -1 1 11 22 28 46 16 25 37 59 45
75 l15 30 -20 -25 c-12 -14 -38 -50 -58 -80 -21 -30 -46 -65 -57 -77 -11 -13
-17 -26 -13 -29 4 -4 39 -2 79 4 143 21 462 61 465 58 1 -1 -17 -31 -40 -66
-23 -36 -87 -137 -142 -224 -55 -88 -135 -214 -177 -280 -67 -105 -117 -186
-153 -246 -29 -48 -89 -130 -96 -130 -4 0 -14 -3 -22 -6 -12 -4 -14 0 -10 16
5 19 3 21 -14 16 -16 -5 -24 0 -36 25 -15 32 -15 32 -23 8 -4 -13 -7 -31 -6
-39 2 -11 -2 -9 -13 4 -8 11 -15 36 -16 55 l-1 36 -16 -47 c-8 -27 -19 -48
-23 -48 -12 0 -21 59 -14 96 3 19 3 44 -1 56 -6 19 -7 19 -16 5 -5 -10 -16
-17 -23 -17 -11 0 -15 13 -15 49 0 28 -4 52 -8 55 -12 7 -58 -43 -67 -71 -3
-13 -12 -23 -19 -23 -7 0 -21 -9 -31 -20 l-18 -20 -23 21 c-12 12 -20 27 -17
35 3 9 -1 14 -12 14 -14 0 -15 6 -10 32 9 42 13 48 30 48 7 0 17 9 20 21 5 14
13 19 25 16 11 -3 21 1 24 10 8 21 -4 39 -15 22 -10 -16 -51 -21 -60 -7 -4 7
-14 6 -28 -2 -18 -9 -21 -17 -16 -43 5 -26 4 -29 -5 -15 -6 10 -12 50 -14 89
-2 49 -8 75 -19 87 -16 15 -17 15 -17 -1 0 -10 5 -15 10 -12 6 3 10 2 10 -2 0
-5 -9 -14 -20 -21 -17 -11 -20 -9 -26 13 -9 35 -17 23 -20 -26 -1 -23 -9 -48
-16 -56 -13 -12 -19 -8 -50 29 -19 24 -38 53 -42 65 -4 11 -13 24 -21 26 -10
4 -13 23 -10 71 3 69 -4 86 -25 61 -28 -33 -66 -9 -68 43 0 19 -5 39 -10 45
-12 16 -13 55 -1 62 18 12 9 26 -10 15 -30 -16 -51 -13 -44 7 5 13 2 15 -11
10 -11 -4 -19 -1 -23 10 -4 9 -1 19 5 21 7 2 12 10 12 18 0 10 12 14 38 14 27
0 45 7 60 23 l22 23 -29 28 c-27 25 -29 26 -45 10 -9 -9 -19 -14 -22 -11 -3 3
-24 -1 -46 -9 -23 -8 -42 -13 -43 -12 -10 18 -26 90 -22 101 3 9 -1 18 -9 21
-10 4 -13 13 -8 31 5 20 3 24 -10 19 -9 -3 -16 -2 -16 4 0 12 44 42 62 42 6 0
27 10 45 22 26 18 32 28 28 46 -3 14 1 29 10 39 15 15 15 17 0 32 -14 14 -17
14 -25 1 -8 -12 -13 -13 -30 -3 -11 7 -29 13 -40 13 -16 0 -20 7 -20 32 0 17
8 40 17 50 16 17 16 20 0 35 -12 12 -31 16 -67 14 -40 -2 -50 1 -50 13 0 10 8
15 22 13 14 -1 23 4 26 16 3 15 -1 17 -22 11 -15 -3 -26 -2 -26 4 0 5 15 13
32 16 49 10 62 13 78 19 8 3 22 7 30 10 10 3 5 7 -12 12 -30 8 -32 13 -28 92
2 48 0 51 -19 46 -15 -4 -21 -1 -21 11 0 9 8 16 20 16 11 0 20 6 20 14 0 8 3
21 6 30 4 11 -3 15 -33 18 -49 4 -53 32 -5 36 20 2 32 8 29 15 -2 7 -16 11
-30 9 -15 -2 -27 1 -27 6 0 13 26 23 43 16 8 -3 18 6 25 20 13 28 -5 50 -41
51 -11 0 -22 6 -25 13 -3 10 4 13 24 10 26 -3 29 0 32 27 2 17 7 34 12 39 5 5
6 15 3 22 -6 17 -65 46 -83 42 -7 -2 -15 3 -17 9 -3 9 7 11 36 8 23 -2 44 1
48 8 3 6 6 37 5 68 -1 32 3 61 8 64 22 14 10 54 -20 70 -29 15 -33 42 -4 31
16 -6 19 10 4 19 -17 11 -11 25 11 25 18 0 20 4 14 44 -5 28 -3 46 4 50 6 4
11 0 12 -11 3 -58 4 -58 38 -61 19 -2 45 -10 57 -19 26 -17 54 -11 54 10 0 8
7 20 15 27 23 19 18 56 -9 73 -41 27 -59 49 -46 57 20 13 25 94 6 109 -20 17
-21 31 -1 31 10 0 15 10 15 29 0 17 4 32 10 36 5 3 7 12 3 21 -6 15 43 94 59
94 5 0 11 -7 14 -15 9 -22 86 42 79 65 -3 10 -1 29 4 42 6 17 6 29 -1 36 -13
13 68 116 83 106 6 -3 6 -11 -1 -20 -9 -10 -8 -21 3 -43 l15 -30 -31 6 -32 6
25 -29 c14 -16 26 -31 27 -33 2 -2 12 4 23 14 11 10 23 15 26 12 4 -3 13 1 21
9 12 11 13 21 4 46 -21 61 -7 106 19 58 6 -10 26 -31 46 -46 l35 -27 19 21
c15 15 18 30 14 62 -5 40 -4 41 18 29 21 -11 22 -11 10 4 -16 19 -12 89 6 95
6 2 12 -3 12 -12 0 -9 5 -16 10 -16 6 0 10 5 10 10 0 20 27 9 38 -15 14 -30
32 -32 39 -6 3 13 10 18 20 14 9 -4 21 0 27 8 6 9 19 18 29 22 11 4 15 12 11
19 -5 7 -8 36 -9 64 0 42 3 51 15 46 26 -9 39 -23 34 -36 -3 -8 5 -15 20 -18
21 -4 26 -1 26 14 0 14 5 18 15 14 9 -3 15 0 15 9 0 8 7 15 15 15 21 0 19 23
-5 65 -25 45 -25 52 3 51 15 -1 21 4 19 15 -1 9 4 31 11 49 13 30 14 31 20 10
4 -15 11 -21 21 -17 9 4 16 2 16 -3 0 -6 -7 -10 -15 -10 -11 0 -15 -11 -15
-42 0 -40 0 -41 20 -23 15 14 23 15 34 6 11 -9 15 -8 20 4 7 18 -10 55 -24 55
-6 0 -10 6 -10 14 0 8 -5 16 -11 18 -11 4 -2 38 11 38 4 0 13 -14 19 -31 12
-34 33 -31 30 4 -2 34 0 47 9 47 4 0 8 -25 8 -55 1 -30 -3 -55 -8 -55 -5 0 -4
-9 2 -20 18 -34 30 -12 27 48 -2 50 0 57 17 57 21 0 42 -50 25 -61 -6 -3 -7
-15 -3 -27 9 -29 8 -29 35 -18 24 10 24 10 2 10 -32 1 -29 21 2 21 21 0 25 4
20 23 -7 29 8 52 30 43 13 -5 16 -15 13 -46 -3 -32 0 -40 12 -40 14 0 16 10
12 62 -4 57 -3 62 12 49 8 -7 13 -17 10 -22 -6 -11 24 -69 36 -69 6 0 10 11
10 25 0 14 5 25 12 25 9 0 9 3 0 12 -14 14 -16 58 -3 58 5 0 18 -22 30 -49
l21 -49 40 10 c28 7 39 15 36 24 -3 8 -8 36 -12 62 -6 47 -5 49 17 47 14 -1
25 -9 27 -18 4 -20 3 -20 36 -7 17 6 26 17 26 32 0 13 5 30 10 38 8 12 13 13
30 2 17 -10 20 -10 20 4 0 10 5 14 15 10 8 -3 15 0 15 7 1 26 28 -26 34 -66 8
-49 30 -87 51 -87 8 0 15 9 15 20 0 11 7 20 15 20 9 0 15 9 15 25 0 31 20 33
21 3 0 -23 0 -23 10 1 5 13 7 33 3 44 -4 13 -2 17 5 13 6 -4 11 -2 11 4 0 27
33 2 45 -34 12 -35 12 -41 -3 -52 -14 -10 -15 -15 -4 -25 19 -20 34 3 36 58 1
26 6 47 11 45 6 -2 8 -13 7 -25 -3 -17 -1 -19 8 -10 8 7 12 35 11 67 l-1 56
34 0 c18 0 61 -3 95 -7 l63 -6 -6 -30 c-4 -21 0 -38 15 -59 13 -18 18 -33 12
-37 -5 -3 -13 -18 -16 -32 -8 -30 4 -43 45 -53 29 -7 48 14 48 53 0 11 7 26
15 35 8 8 15 24 15 35 0 14 6 21 20 21 17 0 19 -6 19 -50 -1 -30 -5 -47 -12
-43 -5 3 -8 0 -5 -7 8 -24 23 -21 36 7 6 15 12 33 12 40 0 7 5 13 11 13 6 0 8
-9 4 -20 -4 -11 -2 -20 4 -20 6 0 11 9 11 20 0 11 5 20 11 20 7 0 9 -9 5 -24
-4 -15 -1 -26 6 -28 8 -3 11 -21 9 -51 -1 -26 2 -47 7 -47 6 0 17 -3 26 -6 10
-4 16 -1 16 9 0 9 6 20 13 24 6 4 12 15 12 23 0 8 5 14 12 13 7 -2 17 15 23
37 16 61 25 54 27 -22 1 -39 4 -72 6 -74 13 -13 36 13 42 47 5 30 13 43 31 49
36 14 51 3 57 -43 5 -38 2 -45 -33 -82 -21 -22 -76 -80 -122 -130 -433 -467
-486 -525 -475 -525 4 0 277 293 537 575 40 44 106 114 145 155 40 41 121 128
181 192 60 64 110 115 112 113 2 -1 -76 -136 -174 -298z m-983 180 c-8 -8 -11
-7 -11 4 0 20 13 34 18 19 3 -7 -1 -17 -7 -23z m-191 9 c0 -11 -12 -15 -41
-14 -45 0 -41 14 6 21 17 2 31 5 33 6 1 0 2 -5 2 -13z m265 -15 c3 -5 1 -12
-5 -16 -5 -3 -10 1 -10 9 0 18 6 21 15 7z m456 -58 c-8 -15 -10 -15 -11 -2 0
17 10 32 18 25 2 -3 -1 -13 -7 -23z m-1051 7 c0 -5 -2 -10 -4 -10 -3 0 -8 5
-11 10 -3 6 -1 10 4 10 6 0 11 -4 11 -10z m13 -47 c5 -26 4 -26 -9 -9 -7 10
-11 23 -8 27 8 14 11 11 17 -18z m1060 -8 c-3 -9 -8 -14 -10 -11 -3 3 -2 9 2
15 9 16 15 13 8 -4z m215 3 c-6 -18 -28 -21 -28 -4 0 9 7 16 16 16 9 0 14 -5
12 -12z m-1344 -22 c-6 -15 -24 -23 -24 -11 0 8 24 34 28 30 1 -1 0 -10 -4
-19z m1666 -141 c0 -28 -15 -34 -24 -9 -4 10 -2 13 6 8 8 -5 9 -2 5 9 -3 10
-2 17 3 17 6 0 10 -11 10 -25z m-2127 -41 c-1 -10 -3 -34 -5 -51 -2 -35 -12
-43 -22 -17 -8 21 -8 79 1 88 12 12 28 -1 26 -20z m1978 -1 c-8 -15 -10 -15
-11 -2 0 17 10 32 18 25 2 -3 -1 -13 -7 -23z m-2191 -131 c0 -5 -6 -17 -14
-27 -13 -18 -14 -18 -9 8 5 24 23 39 23 19z m44 -54 c-24 -25 -28 -16 -13 27
12 33 14 34 21 14 6 -15 3 -28 -8 -41z m-201 -78 c-3 -11 -12 -20 -19 -20 -12
0 -12 4 -2 20 7 11 16 20 19 20 4 0 5 -9 2 -20z m-59 -151 c-9 -20 -10 -20
-23 5 -12 21 -12 28 0 42 12 15 14 14 23 -5 5 -13 6 -29 0 -42z m2976 27 c0
-3 -4 -8 -10 -11 -5 -3 -10 -1 -10 4 0 6 5 11 10 11 6 0 10 -2 10 -4z m-3133
-128 c-3 -8 -6 -5 -6 6 -1 11 2 17 5 13 3 -3 4 -12 1 -19z m-200 -394 c-9 -9
-28 6 -21 18 4 6 10 6 17 -1 6 -6 8 -13 4 -17z m3801 -86 c-2 -6 -10 -14 -16
-16 -7 -2 -10 2 -6 12 7 18 28 22 22 4z m-28 -337 c0 -12 -39 -21 -45 -11 -3
5 1 11 7 13 21 9 38 8 38 -2z m160 -166 c0 -8 -9 -15 -20 -15 -20 0 -26 11
-13 23 12 13 33 7 33 -8z m-4110 -26 c0 -5 -7 -9 -15 -9 -15 0 -20 12 -9 23 8
8 24 -1 24 -14z m4044 -81 c-5 -9 -2 -9 9 1 15 12 17 11 17 -4 0 -10 -6 -15
-17 -13 -19 3 -31 28 -13 28 6 0 8 -5 4 -12z m-4024 -163 c0 -9 -9 -15 -25
-15 -24 0 -32 10 -18 23 12 13 43 7 43 -8z m40 -84 c0 -22 -4 -42 -9 -45 -15
-9 -30 18 -29 52 1 24 6 32 20 32 14 0 18 -8 18 -39z m0 -250 c0 -6 -4 -13
-10 -16 -5 -3 -10 1 -10 9 0 9 5 16 10 16 6 0 10 -4 10 -9z m0 -52 c0 -5 -4
-9 -10 -9 -5 0 -10 7 -10 16 0 8 5 12 10 9 6 -3 10 -10 10 -16z m4007 -51 c-3
-8 -6 -5 -6 6 -1 11 2 17 5 13 3 -3 4 -12 1 -19z m-3957 -68 c0 -5 -4 -10 -10
-10 -5 0 -10 5 -10 10 0 6 5 10 10 10 6 0 10 -4 10 -10z m3680 -360 c0 -5 -4
-10 -9 -10 -6 0 -13 5 -16 10 -3 6 1 10 9 10 9 0 16 -4 16 -10z m-3570 -80 c0
-5 -4 -10 -10 -10 -5 0 -10 5 -10 10 0 6 5 10 10 10 6 0 10 -4 10 -10z m3515
-20 c3 -5 1 -10 -4 -10 -6 0 -11 5 -11 10 0 6 2 10 4 10 3 0 8 -4 11 -10z m41
-77 c-6 -6 -55 29 -56 40 0 5 14 -1 31 -13 16 -12 28 -24 25 -27z m38 41 c17
-6 23 -34 8 -34 -5 0 -17 9 -27 20 -18 20 -11 25 19 14z m-3471 -131 c-7 -18
-20 -16 -27 3 -11 28 -7 35 13 22 10 -6 17 -18 14 -25z m3315 -88 c3 -37 2
-39 -13 -24 -8 8 -18 28 -21 43 -4 22 -1 27 13 24 13 -2 19 -14 21 -43z
m-3118 -134 c0 -5 -7 -12 -16 -15 -14 -5 -15 -4 -4 9 14 17 20 19 20 6z m214
-200 c4 -5 3 -16 0 -25 -5 -13 -9 -14 -20 -5 -8 6 -14 18 -14 25 0 16 26 19
34 5z m2461 -40 c3 -5 1 -12 -5 -16 -5 -3 -10 1 -10 9 0 18 6 21 15 7z m-2365
-17 c0 -8 -5 -12 -10 -9 -6 4 -8 11 -5 16 9 14 15 11 15 -7z m175 -104 c-5
-38 -8 -42 -27 -35 -16 6 -13 61 5 83 15 19 27 -7 22 -48z m-116 21 c-3 -6
-10 -7 -18 -2 -7 5 -10 14 -6 21 9 14 29 -2 24 -19z m51 -12 c0 -18 -4 -28
-10 -24 -5 3 -10 20 -10 36 0 18 4 28 10 24 6 -3 10 -20 10 -36z m93 6 c-3 -9
-8 -14 -10 -11 -3 3 -2 9 2 15 9 16 15 13 8 -4z m1977 -89 c0 -3 -4 -8 -10
-11 -5 -3 -10 -1 -10 4 0 6 5 11 10 11 6 0 10 -2 10 -4z m-1609 -116 c-4 -12
-6 -12 -9 3 -2 9 -8 17 -13 17 -5 0 -9 7 -9 15 0 12 3 12 18 -2 10 -10 16 -25
13 -33z m609 -5 c0 -14 -4 -25 -10 -25 -11 0 -14 33 -3 43 11 11 13 8 13 -18z
m580 -11 c0 -8 -4 -12 -10 -9 -5 3 -10 13 -10 21 0 8 5 12 10 9 6 -3 10 -13
10 -21z m-274 -20 c-3 -9 -6 -18 -6 -21 0 -3 -7 0 -15 7 -13 11 -13 15 -3 21
21 13 31 10 24 -7z m-306 -14 c0 -5 -4 -10 -10 -10 -5 0 -10 5 -10 10 0 6 5
10 10 10 6 0 10 -4 10 -10z m585 0 c3 -5 1 -10 -4 -10 -6 0 -11 5 -11 10 0 6
2 10 4 10 3 0 8 -4 11 -10z m-335 -10 c0 -5 -4 -10 -10 -10 -5 0 -10 5 -10 10
0 6 5 10 10 10 6 0 10 -4 10 -10z m-320 -14 c0 -3 -4 -8 -10 -11 -5 -3 -10 -1
-10 4 0 6 5 11 10 11 6 0 10 -2 10 -4z m-94 -53 c-10 -10 -19 5 -10 18 6 11 8
11 12 0 2 -7 1 -15 -2 -18z m294 6 c0 -5 -4 -9 -10 -9 -5 0 -10 7 -10 16 0 8
5 12 10 9 6 -3 10 -10 10 -16z"/>
<path d="M2140 4491 c0 -5 5 -13 10 -16 6 -3 10 -2 10 4 0 5 -4 13 -10 16 -5
3 -10 2 -10 -4z"/>
<path d="M2595 4489 c-4 -6 -5 -12 -2 -15 2 -3 7 2 10 11 7 17 1 20 -8 4z"/>
<path d="M2920 4469 c0 -11 5 -17 10 -14 6 3 10 13 10 21 0 8 -4 14 -10 14 -5
0 -10 -9 -10 -21z"/>
<path d="M1617 4251 c3 -11 12 -26 20 -33 12 -10 14 -7 11 17 -2 18 -10 31
-20 33 -12 2 -15 -2 -11 -17z"/>
<path d="M3571 4244 c0 -11 3 -14 6 -6 3 7 2 16 -1 19 -3 4 -6 -2 -5 -13z"/>
<path d="M1127 3861 c-3 -14 1 -24 13 -31 27 -14 33 4 12 31 l-19 22 -6 -22z"/>
<path d="M1392 3838 c-7 -7 -12 -43 -12 -93 0 -50 5 -86 12 -93 9 -9 73 -12
225 -12 l213 0 0 -438 c0 -327 -3 -441 -12 -450 -9 -9 -9 -12 0 -12 9 0 12
-37 12 -138 0 -94 4 -142 12 -150 8 -8 47 -12 110 -12 86 0 98 2 108 19 5 11
10 85 10 169 l0 149 139 23 c76 12 143 21 149 19 6 -2 -25 -60 -69 -129 -45
-69 -74 -118 -65 -110 26 25 166 233 166 247 0 7 -9 13 -19 13 -12 0 -21 9
-25 26 -8 32 -65 58 -110 49 -77 -16 -150 -43 -294 -112 -41 -19 -76 -33 -78
-30 -4 4 137 162 320 358 92 98 110 119 104 119 -3 0 -54 -52 -112 -115 l-106
-115 0 310 0 310 208 0 c249 0 242 -3 242 108 0 51 -4 75 -16 86 -14 14 -78
16 -558 16 -408 0 -545 -3 -554 -12z"/>
<path d="M1115 3801 c-6 -11 9 -23 19 -14 9 9 7 23 -3 23 -6 0 -12 -4 -16 -9z"/>
<path d="M4114 3789 c-10 -12 -18 -29 -16 -39 4 -22 -17 -37 -28 -20 -6 9 -9
9 -15 0 -4 -7 0 -19 9 -28 14 -14 19 -14 53 4 36 19 59 64 34 64 -15 0 -14 27
2 33 8 4 6 6 -4 6 -9 1 -24 -8 -35 -20z"/>
<path d="M4180 3780 c0 -13 5 -20 13 -17 6 2 12 10 12 17 0 7 -6 15 -12 18 -8
2 -13 -5 -13 -18z"/>
<path d="M1060 3776 c0 -8 5 -18 10 -21 6 -3 10 3 10 14 0 12 -4 21 -10 21 -5
0 -10 -6 -10 -14z"/>
<path d="M1007 3741 c5 -19 53 -36 53 -20 0 5 -7 9 -15 9 -9 0 -18 7 -21 15
-9 22 -23 18 -17 -4z"/>
<path d="M2584 3573 l-68 -78 77 75 c42 41 77 76 77 77 0 15 -29 -10 -86 -74z"/>
<path d="M810 3615 c7 -9 15 -13 17 -11 7 7 -7 26 -19 26 -6 0 -6 -6 2 -15z"/>
<path d="M4158 3618 c-32 -11 -37 -28 -9 -28 10 0 22 -8 25 -17 6 -15 8 -15
22 -1 10 10 14 24 9 37 -7 23 -8 24 -47 9z"/>
<path d="M2473 3458 c-37 -42 -37 -54 0 -19 21 19 37 36 37 38 0 10 -19 0 -37
-19z"/>
<path d="M2369 3344 l-34 -37 32 23 c18 13 34 29 37 37 8 20 3 17 -35 -23z"/>
<path d="M4294 3356 c-3 -8 -4 -25 -2 -38 2 -17 8 -22 23 -20 32 6 40 19 27
47 -13 27 -39 33 -48 11z"/>
<path d="M3380 3339 c-51 -17 -46 -18 33 -2 38 8 34 1 -58 -111 -60 -72 -84
-92 -170 -141 -236 -136 -242 -141 -412 -359 -153 -196 -155 -200 -150 -240 6
-43 35 -76 68 -76 15 0 7 -16 -41 -81 -70 -94 -75 -114 -27 -106 17 3 100 11
182 17 105 8 165 18 198 32 105 42 291 19 364 -45 38 -33 83 -116 83 -154 0
-50 6 -53 110 -53 125 0 129 4 112 103 -33 192 -160 320 -357 362 -146 31
-332 12 -451 -47 -66 -32 -165 -123 -184 -168 -8 -19 -21 -30 -42 -34 -55 -11
-73 -38 209 321 72 92 172 220 222 283 50 63 130 167 178 230 48 63 97 126
109 140 38 43 114 139 114 145 0 9 -34 3 -90 -16z"/>
<path d="M2314 3278 l-19 -23 23 19 c21 18 27 26 19 26 -2 0 -12 -10 -23 -22z"/>
<path d="M3170 3279 c-35 -12 -43 -16 -20 -12 40 7 112 32 90 31 -8 0 -40 -8
-70 -19z"/>
<path d="M3088 3253 c7 -3 16 -2 19 1 4 3 -2 6 -13 5 -11 0 -14 -3 -6 -6z"/>
<path d="M639 3004 c-21 -44 -7 -58 35 -35 17 10 37 16 44 14 7 -3 12 4 12 16
0 29 -36 28 -44 -1 -6 -26 -22 -15 -28 18 -3 18 -5 17 -19 -12z"/>
<path d="M4543 2573 c-34 -7 -32 -53 2 -53 21 0 25 5 25 30 0 17 -1 29 -2 29
-2 -1 -13 -4 -25 -6z"/>
<path d="M4443 2554 c-8 -21 27 -50 38 -32 9 14 -7 48 -22 48 -5 0 -12 -7 -16
-16z"/>
<path d="M2172 2518 c-27 -34 -242 -361 -239 -365 2 -2 24 27 49 64 24 38 73
111 109 163 35 53 72 108 82 123 18 28 18 37 -1 15z"/>
<path d="M4555 2470 l-30 -8 32 -1 c17 0 35 4 38 9 7 11 3 11 -40 0z"/>
<path d="M4532 2328 c5 -15 28 -18 29 -3 0 6 -7 12 -17 13 -10 3 -15 -1 -12
-10z"/>
<path d="M4440 2271 c0 -11 5 -23 10 -26 6 -4 10 5 10 19 0 14 -4 26 -10 26
-5 0 -10 -9 -10 -19z"/>
<path d="M1908 2123 c-14 -16 -84 -119 -102 -150 -4 -7 -5 -13 -2 -13 3 0 32
41 65 90 59 87 71 110 39 73z"/>
<path d="M695 1870 c-3 -5 1 -10 9 -10 9 0 16 5 16 10 0 6 -4 10 -9 10 -6 0
-13 -4 -16 -10z"/>
<path d="M4300 1828 c0 -19 2 -20 10 -8 13 19 13 30 0 30 -5 0 -10 -10 -10
-22z"/>
<path d="M656 1815 c-4 -12 -1 -16 11 -13 18 3 21 20 5 26 -5 1 -12 -4 -16
-13z"/>
<path d="M756 1675 c-11 -8 -17 -17 -14 -21 7 -6 48 17 48 28 0 12 -13 9 -34
-7z"/>
<path d="M4107 1456 c-3 -8 3 -22 14 -32 18 -17 19 -16 19 14 0 33 -23 45 -33
18z"/>
<path d="M4061 1394 c0 -11 3 -14 6 -6 3 7 2 16 -1 19 -3 4 -6 -2 -5 -13z"/>
<path d="M1011 1376 c-8 -9 -8 -16 -2 -20 6 -4 15 3 21 14 12 23 -2 27 -19 6z"/>
<path d="M1212 1135 c-8 -16 -8 -26 -1 -31 6 -3 8 -12 5 -20 -3 -8 -2 -14 3
-14 10 0 21 35 21 68 0 29 -14 28 -28 -3z"/>
<path d="M1485 990 c3 -5 8 -10 11 -10 2 0 4 5 4 10 0 6 -5 10 -11 10 -5 0 -7
-4 -4 -10z"/>
<path d="M3560 912 c0 -5 7 -16 16 -23 14 -12 16 -11 13 5 -4 20 -29 35 -29
18z"/>
<path d="M3170 755 c0 -10 7 -15 18 -13 21 4 19 22 -2 26 -10 2 -16 -3 -16
-13z"/>
<path d="M2790 675 c0 -8 4 -15 9 -15 5 0 11 7 15 15 3 9 0 15 -9 15 -8 0 -15
-7 -15 -15z"/>
<path d="M2650 580 c0 -5 5 -10 10 -10 6 0 10 5 10 10 0 6 -4 10 -10 10 -5 0
-10 -4 -10 -10z"/>
</g>
</svg>
