<svg enable-background="new 0 0 580 580" viewBox="0 0 580 580" xmlns="http://www.w3.org/2000/svg"><path d="m276 21h30c1.4.3 2.9.8 4.3.9 33.4 2.3 65.5 10.1 95.4 25 83.6 41.3 134.3 107.7 151.4 199.5 1.8 9.8 2.6 19.7 3.9 29.6v30c-.3 1.6-.8 3.2-.9 4.8-2.3 33.8-10.4 66.1-25.5 96.3-41.5 82.7-107.8 133-199 149.9-9.8 1.8-19.7 2.6-29.6 3.9-10 0-20 0-30 0-1.4-.3-2.9-.8-4.3-.9-29-1.9-57.1-8-83.6-19.7-90.1-39.6-144.8-107.8-163.2-204.7-1.8-9.8-2.7-19.7-3.9-29.6 0-10 0-20 0-30 .3-1.6.8-3.2.9-4.8 2.3-33.4 10.2-65.5 25.1-95.4 41.4-83.3 107.8-133.8 199.4-150.9 9.8-1.8 19.7-2.6 29.6-3.9zm14.6 490.1c121.6.2 220.2-98.1 220.5-219.5.2-121.6-98-220.3-219.4-220.6-121.8-.4-220.7 98-220.8 219.7-.1 121.6 98.2 220.2 219.7 220.4z"/><text fill="#2a2122" font-family="'HelveticaNeue'" font-size="200" transform="translate(288.973 444.723)">S</text><text fill="#2a2122" font-family="'HelveticaNeue'" font-size="200" transform="translate(167.996 300.441)">T</text><g fill="#fe7f02"><path d="m412.1 55.3c.9-.3 1.7-.7 3.8-1.5-33.8 57.4-67 113.8-100.9 171.4 18.1-5 35-9.7 51.9-14.1 7-1.8 13.7-4.8 21.1-5v-.1c-5.5 8.9-12.5 16.7-18.9 24.9-23.3 29.9-46.8 59.8-70.2 89.7-1.1 1.4-2.1 2.9-3.7 5.2 20.2-1.7 39.4-3.3 58.6-4.9.5 2.2-.9 2.8-1.8 3.6-43.8 45-87.6 90.1-131.4 135.1-19.9 20.4-39.7 40.9-59.5 61.4-1.5 1.5-2.9 3.2-5 4 0-1 0-2 0-3 2.4 0 2.7-2.3 3.6-3.7 27.4-43.1 54.7-86.3 82-129.5 3.6-5.7 7.2-11.4 11.2-17.7-19.9 2.5-38.8 4.9-59.2 7.4 26.2-39 51.7-76.9 77.8-115.7-20.4 3.1-39.8 6-59.2 9-.2-.3-.4-.6-.6-.9 6.5-7 13-14.1 19.5-21.1 45.1-48.4 90.2-96.7 135.2-145.1 15.2-16.4 30.4-32.9 45.7-49.4z"/><path d="m388.1 206.1c.1-.2.1-.4.2-.6 0 .1.1.2.1.3-.1.1-.2.2-.4.2 0 0 .1.1.1.1z"/></g></svg>