<svg xmlns="http://www.w3.org/2000/svg" width="24" height="24" viewBox="0 0 24 24" fill="none" stroke="#98a2a9" stroke-width="2" stroke-linecap="round" stroke-linejoin="round" class="lucide lucide-hard-drive size-3" aria-hidden="true"><path d="M10 16h.01"></path><path d="M2.212 11.577a2 2 0 0 0-.212.896V18a2 2 0 0 0 2 2h16a2 2 0 0 0 2-2v-5.527a2 2 0 0 0-.212-.896L18.55 5.11A2 2 0 0 0 16.76 4H7.24a2 2 0 0 0-1.79 1.11z"></path><path d="M21.946 12.013H2.054"></path><path d="M6 16h.01"></path></svg>